<svg xmlns="http://www.w3.org/2000/svg" version="1.1" xmlns:xlink="http://www.w3.org/1999/xlink" xmlns:svgjs="http://svgjs.dev/svgjs" width="1000" height="1000">
<style>
    #light-icon {
      display: inline;
    }
    #dark-icon {
      display: none;
    }

    @media (prefers-color-scheme: dark) {
      #light-icon {
        display: none;
      }
      #dark-icon {
        display: inline;
      }
    }
  </style><g id="light-icon"><svg xmlns="http://www.w3.org/2000/svg" version="1.1" xmlns:xlink="http://www.w3.org/1999/xlink" xmlns:svgjs="http://svgjs.dev/svgjs" width="1000" height="1000"><g><g transform="matrix(5.367686527106817,0,0,5.367686527106817,0,310.52066559312937)"><svg xmlns="http://www.w3.org/2000/svg" version="1.1" xmlns:xlink="http://www.w3.org/1999/xlink" xmlns:svgjs="http://svgjs.dev/svgjs" width="186.3" height="70.6"><svg width="186.3" height="70.6" viewBox="0 0 186.3 70.6" xmlns="http://www.w3.org/2000/svg"><g id="svgGroup" stroke-linecap="round" fill-rule="evenodd" font-size="9pt" stroke="#000" stroke-width="0.25mm" fill="#000" style="stroke:#000;stroke-width:0.25mm;fill:#000"><path d="M 5.761 70.298 A 10.905 10.905 0 0 0 8.4 70.6 Q 11.9 70.6 16.3 68.5 Q 18.981 67.22 21.811 64.994 A 47.882 47.882 0 0 0 25.5 61.75 Q 30.3 57.1 34.95 49.5 A 73.934 73.934 0 0 0 36.245 47.297 Q 38.168 43.895 39.976 39.906 A 130.768 130.768 0 0 0 43.6 31 A 2.399 2.399 0 0 1 44.116 30.227 Q 44.631 29.695 45.55 29.25 A 13.427 13.427 0 0 1 46.762 28.737 A 16.045 16.045 0 0 1 49 28.1 A 23.661 23.661 0 0 1 49.821 27.942 Q 50.485 27.826 51.08 27.766 A 12.137 12.137 0 0 1 52.3 27.7 A 6.252 6.252 0 0 1 52.399 27.701 Q 53.138 27.713 53.7 27.9 Q 54.302 28.158 54.386 27.529 A 1.73 1.73 0 0 0 54.4 27.3 A 1.225 1.225 0 0 0 54.4 27.267 Q 54.393 27.017 54.284 26.819 A 1.004 1.004 0 0 0 54 26.5 A 0.69 0.69 0 0 0 53.997 26.497 Q 53.689 26.27 52.919 26.217 A 7.522 7.522 0 0 0 52.4 26.2 A 13.945 13.945 0 0 0 51.587 26.225 Q 48.82 26.387 44.4 27.6 A 123.286 123.286 0 0 0 45.143 25.13 A 150.102 150.102 0 0 0 46.35 20.7 Q 47.3 17 48.4 13.3 A 110.803 110.803 0 0 1 48.709 12.277 Q 49.655 9.206 50.6 6.8 Q 52.678 6.978 54.368 7.333 A 19.232 19.232 0 0 1 56.5 7.9 Q 57.4 8.2 58 8.3 A 9.456 9.456 0 0 0 58.364 8.354 Q 58.728 8.4 59 8.4 Q 59.7 8.4 59.7 7.9 A 0.601 0.601 0 0 0 59.693 7.813 Q 59.621 7.317 58.75 6.4 A 14.303 14.303 0 0 0 58.415 6.058 Q 57.691 5.345 57.2 5.1 A 16.464 16.464 0 0 0 56.691 4.856 A 18.688 18.688 0 0 0 55.05 4.2 Q 53.9 3.8 52.6 3.4 A 8.23 8.23 0 0 1 53.174 2.839 Q 54.287 1.859 55.4 1.7 A 2.626 2.626 0 0 0 55.694 1.63 Q 55.919 1.562 56.081 1.459 A 0.847 0.847 0 0 0 56.5 0.7 Q 56.5 0 55.4 0 Q 54 0 52.7 0.8 A 9.129 9.129 0 0 0 51.791 1.44 A 10.699 10.699 0 0 0 50.3 2.9 A 32.944 32.944 0 0 0 49.505 2.759 A 36.82 36.82 0 0 0 45.9 2.35 Q 43.6 2.2 41.1 2.2 Q 36.5 2.2 32 2.95 A 36.751 36.751 0 0 0 28.752 3.639 A 29.549 29.549 0 0 0 23.9 5.35 A 18.474 18.474 0 0 0 21.411 6.721 A 14.009 14.009 0 0 0 18.2 9.6 A 8.351 8.351 0 0 0 16.732 12.314 Q 16.283 13.714 16.283 15.348 A 12.401 12.401 0 0 0 16.3 16 Q 16.3 19.4 18.7 22.15 A 12.68 12.68 0 0 0 19.168 22.658 A 10.115 10.115 0 0 0 24.4 25.6 Q 25.214 25.844 25.366 25.558 A 0.335 0.335 0 0 0 25.4 25.4 A 0.283 0.283 0 0 0 25.389 25.324 Q 25.331 25.114 24.956 24.858 A 3.852 3.852 0 0 0 24.7 24.7 A 11.237 11.237 0 0 0 24.539 24.602 Q 23.76 24.132 22.45 23.5 A 8.277 8.277 0 0 1 22.315 23.433 A 8.621 8.621 0 0 1 19.85 21.55 A 4.193 4.193 0 0 1 18.876 19.748 A 5.677 5.677 0 0 1 18.7 18.3 A 7.109 7.109 0 0 1 19.619 14.72 A 8.202 8.202 0 0 1 21.45 12.55 A 14.495 14.495 0 0 1 22.111 12.018 Q 24.716 10.044 28.65 8.85 A 47.648 47.648 0 0 1 30.409 8.353 A 53.338 53.338 0 0 1 38.1 6.95 A 70.976 70.976 0 0 1 39.917 6.774 Q 42.616 6.547 45.164 6.547 A 54.855 54.855 0 0 1 47.6 6.6 A 52.376 52.376 0 0 0 45.995 9.825 A 65.798 65.798 0 0 0 44.1 14.45 A 149.912 149.912 0 0 0 42.963 17.649 A 123.305 123.305 0 0 0 41.35 22.7 A 176.666 176.666 0 0 1 41.338 22.742 Q 40.554 25.397 39.887 27.354 A 58.236 58.236 0 0 1 39.3 29 Q 29.6 32.1 21.25 37 A 56.081 56.081 0 0 0 17.671 39.287 A 61.596 61.596 0 0 0 6.1 49.8 Q 2.9 53.5 1.45 56.8 A 22.668 22.668 0 0 0 0.977 57.96 Q 0.516 59.19 0.273 60.314 A 11.29 11.29 0 0 0 0 62.7 A 10.063 10.063 0 0 0 0.088 64.051 A 7.135 7.135 0 0 0 2.3 68.45 A 7.694 7.694 0 0 0 5.761 70.298 Z M 67.3 48.8 L 67.1 48.8 Q 66.231 48.8 65.943 48.443 A 0.683 0.683 0 0 1 65.8 48 Q 65.8 47.523 66.529 47.501 A 2.391 2.391 0 0 1 66.6 47.5 A 8.916 8.916 0 0 0 68.31 47.17 Q 69.932 46.704 71.971 45.621 A 32.709 32.709 0 0 0 72.65 45.25 A 55.95 55.95 0 0 0 76.487 42.896 A 43.864 43.864 0 0 0 79.1 41 Q 80.3 40 81.95 38.2 A 8.281 8.281 0 0 0 82.816 37.092 Q 83.226 36.453 83.422 35.828 A 3.762 3.762 0 0 0 83.6 34.7 A 2.755 2.755 0 0 0 83.519 34.001 Q 83.285 33.109 82.367 32.94 A 2.578 2.578 0 0 0 81.9 32.9 A 4.45 4.45 0 0 0 80.646 33.087 A 5.567 5.567 0 0 0 80.05 33.3 Q 79.1 33.7 78.5 33.9 A 22.549 22.549 0 0 0 76.241 35.168 Q 75.035 35.932 73.74 36.927 A 46.729 46.729 0 0 0 72.1 38.25 Q 68.6 41.2 65.75 44.85 A 25.927 25.927 0 0 0 63.368 48.455 A 19.612 19.612 0 0 0 61.8 52.2 A 7.598 7.598 0 0 0 61.503 53.181 A 6.342 6.342 0 0 0 61.4 53.75 A 11.216 11.216 0 0 0 61.304 54.936 A 10.001 10.001 0 0 0 61.3 55.2 A 5.804 5.804 0 0 0 61.43 56.471 Q 61.608 57.266 62.033 57.839 A 3.097 3.097 0 0 0 62.85 58.6 A 6.157 6.157 0 0 0 65.133 59.476 A 8.348 8.348 0 0 0 66.6 59.6 A 16.533 16.533 0 0 0 71.125 58.946 A 20.724 20.724 0 0 0 73.4 58.15 A 35.741 35.741 0 0 0 79.787 54.684 A 39.571 39.571 0 0 0 80.2 54.4 Q 83.5 52.1 86.25 49.45 Q 89 46.8 90.9 44.3 A 1.389 1.389 0 0 1 91.118 44.066 A 0.918 0.918 0 0 1 91.6 43.85 A 1.372 1.372 0 0 1 91.672 43.843 Q 92.009 43.819 92.1 44 A 0.581 0.581 0 0 1 92.302 44.09 Q 92.5 44.234 92.5 44.55 Q 92.5 45 92.3 45.4 A 49.195 49.195 0 0 1 87.963 50.609 A 59.087 59.087 0 0 1 85.55 53 Q 81.6 56.7 76.85 59.15 Q 72.1 61.6 67 61.6 A 16.206 16.206 0 0 1 62.953 61.115 A 12.946 12.946 0 0 1 59.2 59.5 A 6.79 6.79 0 0 1 56.007 54.574 A 9.816 9.816 0 0 1 55.9 53.1 A 9.673 9.673 0 0 1 56.089 51.276 Q 56.262 50.38 56.593 49.37 A 23.752 23.752 0 0 1 57.3 47.5 Q 58.3 45.2 61 42.2 Q 63.7 39.2 67.3 36.35 Q 70.9 33.5 74.6 31.65 Q 78.3 29.8 81.3 29.8 A 6.981 6.981 0 0 1 82.459 29.892 A 5.588 5.588 0 0 1 83.3 30.1 A 5.196 5.196 0 0 1 84.381 30.618 A 3.481 3.481 0 0 1 85.65 32 Q 86.3 33.3 86.3 34.7 Q 86.3 36 85.9 37.2 A 9.772 9.772 0 0 1 85.403 38.423 A 7.72 7.72 0 0 1 84.9 39.3 A 14.687 14.687 0 0 1 82.385 42.148 A 20.013 20.013 0 0 1 79.75 44.1 A 34.448 34.448 0 0 1 74.455 46.832 A 30.811 30.811 0 0 1 72.95 47.4 A 40.913 40.913 0 0 1 70.916 48.052 Q 68.952 48.622 67.504 48.78 A 11.524 11.524 0 0 1 67.3 48.8 Z M 99.2 48.8 L 99 48.8 Q 98.131 48.8 97.843 48.443 A 0.683 0.683 0 0 1 97.7 48 Q 97.7 47.523 98.429 47.501 A 2.391 2.391 0 0 1 98.5 47.5 A 8.916 8.916 0 0 0 100.21 47.17 Q 101.832 46.704 103.871 45.621 A 32.709 32.709 0 0 0 104.55 45.25 A 55.95 55.95 0 0 0 108.387 42.896 A 43.864 43.864 0 0 0 111 41 Q 112.2 40 113.85 38.2 A 8.281 8.281 0 0 0 114.716 37.092 Q 115.126 36.453 115.322 35.828 A 3.762 3.762 0 0 0 115.5 34.7 A 2.755 2.755 0 0 0 115.419 34.001 Q 115.185 33.109 114.267 32.94 A 2.578 2.578 0 0 0 113.8 32.9 A 4.45 4.45 0 0 0 112.546 33.087 A 5.567 5.567 0 0 0 111.95 33.3 Q 111 33.7 110.4 33.9 A 22.549 22.549 0 0 0 108.141 35.168 Q 106.935 35.932 105.64 36.927 A 46.729 46.729 0 0 0 104 38.25 Q 100.5 41.2 97.65 44.85 A 25.927 25.927 0 0 0 95.268 48.455 A 19.612 19.612 0 0 0 93.7 52.2 A 7.598 7.598 0 0 0 93.403 53.181 A 6.342 6.342 0 0 0 93.3 53.75 A 11.216 11.216 0 0 0 93.204 54.936 A 10.001 10.001 0 0 0 93.2 55.2 A 5.804 5.804 0 0 0 93.33 56.471 Q 93.508 57.266 93.933 57.839 A 3.097 3.097 0 0 0 94.75 58.6 A 6.157 6.157 0 0 0 97.033 59.476 A 8.348 8.348 0 0 0 98.5 59.6 A 16.533 16.533 0 0 0 103.025 58.946 A 20.724 20.724 0 0 0 105.3 58.15 A 35.741 35.741 0 0 0 111.687 54.684 A 39.571 39.571 0 0 0 112.1 54.4 Q 115.4 52.1 118.15 49.45 Q 120.9 46.8 122.8 44.3 A 1.389 1.389 0 0 1 123.018 44.066 A 0.918 0.918 0 0 1 123.5 43.85 A 1.372 1.372 0 0 1 123.572 43.843 Q 123.909 43.819 124 44 A 0.581 0.581 0 0 1 124.202 44.09 Q 124.4 44.234 124.4 44.55 Q 124.4 45 124.2 45.4 A 49.195 49.195 0 0 1 119.863 50.609 A 59.087 59.087 0 0 1 117.45 53 Q 113.5 56.7 108.75 59.15 Q 104 61.6 98.9 61.6 A 16.206 16.206 0 0 1 94.853 61.115 A 12.946 12.946 0 0 1 91.1 59.5 A 6.79 6.79 0 0 1 87.907 54.574 A 9.816 9.816 0 0 1 87.8 53.1 A 9.673 9.673 0 0 1 87.989 51.276 Q 88.162 50.38 88.493 49.37 A 23.752 23.752 0 0 1 89.2 47.5 Q 90.2 45.2 92.9 42.2 Q 95.6 39.2 99.2 36.35 Q 102.8 33.5 106.5 31.65 Q 110.2 29.8 113.2 29.8 A 6.981 6.981 0 0 1 114.359 29.892 A 5.588 5.588 0 0 1 115.2 30.1 A 5.196 5.196 0 0 1 116.281 30.618 A 3.481 3.481 0 0 1 117.55 32 Q 118.2 33.3 118.2 34.7 Q 118.2 36 117.8 37.2 A 9.772 9.772 0 0 1 117.303 38.423 A 7.72 7.72 0 0 1 116.8 39.3 A 14.687 14.687 0 0 1 114.285 42.148 A 20.013 20.013 0 0 1 111.65 44.1 A 34.448 34.448 0 0 1 106.355 46.832 A 30.811 30.811 0 0 1 104.85 47.4 A 40.913 40.913 0 0 1 102.816 48.052 Q 100.852 48.622 99.404 48.78 A 11.524 11.524 0 0 1 99.2 48.8 Z M 154.2 65.1 Q 150.2 65.1 150.2 62.9 Q 150.2 61.662 151.217 60.365 A 8.529 8.529 0 0 1 151.9 59.6 Q 153.2 58.3 154.8 57.5 A 28.274 28.274 0 0 1 155.358 57.228 Q 156.455 56.71 156.788 56.7 A 0.428 0.428 0 0 1 156.8 56.7 Q 157.3 56.7 157.35 57.1 A 0.573 0.573 0 0 1 157.355 57.171 Q 157.355 57.518 156.9 57.7 A 13.033 13.033 0 0 0 156.115 58.213 Q 155.688 58.514 155.222 58.883 A 26.104 26.104 0 0 0 154.65 59.35 Q 153.4 60.4 153.4 61.6 A 1.914 1.914 0 0 0 153.511 62.281 Q 153.86 63.2 155.3 63.2 A 8.803 8.803 0 0 0 157.951 62.773 Q 159.006 62.441 160.1 61.85 A 20.709 20.709 0 0 0 164.615 58.531 A 23.035 23.035 0 0 0 164.75 58.4 A 26.376 26.376 0 0 0 166.809 56.155 A 20.45 20.45 0 0 0 168.25 54.15 A 12.195 12.195 0 0 0 168.947 52.891 Q 169.253 52.245 169.416 51.657 A 4.724 4.724 0 0 0 169.6 50.4 A 3.629 3.629 0 0 0 168.911 48.278 A 4.654 4.654 0 0 0 168.7 48 A 4.996 4.996 0 0 0 168.088 47.387 Q 167.395 46.792 166.239 46.1 A 29.721 29.721 0 0 0 165 45.4 Q 163.1 44.3 161.35 43.1 A 8.675 8.675 0 0 1 159.572 41.499 A 7.549 7.549 0 0 1 158.7 40.2 A 55.758 55.758 0 0 1 158.037 41.327 Q 157.734 41.829 157.387 42.385 A 112.933 112.933 0 0 1 156.65 43.55 A 41.148 41.148 0 0 1 155.101 45.791 A 51.824 51.824 0 0 1 153.7 47.6 Q 153.299 48.001 152.898 48.134 A 1.258 1.258 0 0 1 152.5 48.2 A 1.052 1.052 0 0 1 152.277 48.179 Q 151.956 48.109 151.908 47.81 A 0.702 0.702 0 0 1 151.9 47.7 Q 151.9 47.422 152.329 46.801 A 7.834 7.834 0 0 1 152.4 46.7 Q 154.467 44.25 155.714 42.093 A 19.462 19.462 0 0 0 156.4 40.8 A 94.004 94.004 0 0 0 157 39.531 Q 157.825 37.75 158.2 36.7 A 9.54 9.54 0 0 1 159.569 32.981 A 12.886 12.886 0 0 1 160.9 31.2 A 22.249 22.249 0 0 1 165.008 27.6 A 26.239 26.239 0 0 1 166.5 26.65 A 33.065 33.065 0 0 1 172.819 23.741 A 30.752 30.752 0 0 1 173.25 23.6 Q 176.124 22.684 178.477 22.531 A 14.224 14.224 0 0 1 179.4 22.5 Q 182.1 22.5 184.2 23.5 Q 186.205 24.455 186.296 26.503 A 4.444 4.444 0 0 1 186.3 26.7 A 4.791 4.791 0 0 1 186.13 27.93 Q 185.955 28.589 185.6 29.3 Q 184.7 31.2 182.6 32.7 Q 182.517 32.783 182.366 32.797 A 0.703 0.703 0 0 1 182.3 32.8 A 1.33 1.33 0 0 1 181.998 32.769 Q 181.586 32.673 181.515 32.278 A 1.002 1.002 0 0 1 181.5 32.1 Q 181.5 31.6 182 31.1 Q 182.8 30.4 183.3 29.4 Q 183.791 28.418 183.8 27.532 A 3.249 3.249 0 0 0 183.8 27.5 A 2.189 2.189 0 0 0 183.677 26.735 Q 183.292 25.7 181.7 25.7 A 10.852 10.852 0 0 0 180.111 25.829 Q 178.46 26.075 176.284 26.789 A 38.62 38.62 0 0 0 175.95 26.9 A 30.388 30.388 0 0 0 169.494 29.941 A 28.496 28.496 0 0 0 169.4 30 A 30.511 30.511 0 0 0 165.967 32.564 A 24.198 24.198 0 0 0 163.7 34.8 A 14.426 14.426 0 0 0 162.64 36.139 Q 161.589 37.658 161.429 38.945 A 3.681 3.681 0 0 0 161.4 39.4 A 2.954 2.954 0 0 0 161.971 41.143 A 3.682 3.682 0 0 0 162.05 41.25 Q 162.581 41.945 163.948 42.807 A 20.149 20.149 0 0 0 164.6 43.2 Q 165.366 43.659 166.6 44.324 A 111.098 111.098 0 0 0 167.4 44.75 Q 168.848 45.515 169.973 46.182 A 38.162 38.162 0 0 1 170.5 46.5 A 14.898 14.898 0 0 1 172.245 47.729 Q 174.6 49.678 174.6 51.8 A 5.87 5.87 0 0 1 174.044 54.24 Q 173.545 55.339 172.6 56.45 A 19.197 19.197 0 0 1 169.986 58.967 A 25.406 25.406 0 0 1 167.45 60.75 Q 164.3 62.7 160.8 63.9 Q 157.3 65.1 154.2 65.1 Z M 123.878 63.159 A 3.468 3.468 0 0 0 124.9 63.3 Q 125.053 63.3 125.382 63.183 A 6.137 6.137 0 0 0 125.6 63.1 A 1.051 1.051 0 0 0 125.766 63.017 Q 125.956 62.898 126.038 62.715 A 0.765 0.765 0 0 0 126.1 62.4 Q 126.3 60.7 128.25 57.5 A 60.276 60.276 0 0 1 129.225 55.956 Q 130.087 54.633 131.117 53.188 A 111.826 111.826 0 0 1 133.25 50.3 A 117.151 117.151 0 0 1 134.021 49.3 A 129.581 129.581 0 0 1 139.9 42.3 A 129.256 129.256 0 0 1 141.252 40.821 A 115.301 115.301 0 0 1 147.15 34.9 Q 149.203 32.988 151.098 31.486 A 43.233 43.233 0 0 1 153.95 29.4 A 22.727 22.727 0 0 1 154.554 29.011 Q 157.305 27.3 159.2 27.3 L 161.1 27.3 A 3.517 3.517 0 0 1 161.429 27.315 Q 162.186 27.386 162.6 27.8 A 7.602 7.602 0 0 0 162.797 27.928 Q 163.235 28.2 163.4 28.2 Q 164.2 28.2 164.2 27 A 2.504 2.504 0 0 0 164.173 26.62 Q 164.097 26.123 163.8 25.9 Q 163.4 25.1 162.2 24.5 A 5.481 5.481 0 0 0 160.812 24.032 A 7.225 7.225 0 0 0 159.4 23.9 A 4.935 4.935 0 0 0 159.244 23.903 Q 158.696 23.92 158.099 24.058 A 8.283 8.283 0 0 0 157 24.4 Q 154 25.6 151.6 27.55 Q 149.2 29.5 146.9 31.8 Q 141.2 37.1 136.3 43.3 Q 131.4 49.5 126.7 55.7 Q 126.55 54.345 127.079 52.084 A 29.306 29.306 0 0 1 127.5 50.5 Q 128.5 47.1 129.5 44.3 A 2.687 2.687 0 0 1 129.536 44.147 Q 129.676 43.615 130.15 42.45 A 109.7 109.7 0 0 0 130.186 42.363 Q 130.721 41.045 131.35 39.4 Q 132 37.7 132.55 36.25 Q 133.1 34.8 133.1 34.2 Q 133.203 33.79 133.174 33.38 A 2.767 2.767 0 0 0 133 32.6 A 4.292 4.292 0 0 0 132.711 31.978 A 3.185 3.185 0 0 0 132.2 31.3 A 4.014 4.014 0 0 0 132.175 31.269 A 3.154 3.154 0 0 0 130.2 30.1 Q 129 29.9 127.6 29.9 A 1.309 1.309 0 0 0 127.557 29.901 Q 127.361 29.907 126.747 29.966 A 80.158 80.158 0 0 0 126.4 30 A 53.008 53.008 0 0 0 125.83 30.06 A 61.618 61.618 0 0 0 124.3 30.25 Q 123.507 30.358 123.078 30.544 A 1.375 1.375 0 0 0 122.8 30.7 Q 122.341 31.313 122.233 31.632 A 0.541 0.541 0 0 0 122.2 31.8 A 0.442 0.442 0 0 0 122.213 31.911 Q 122.248 32.047 122.381 32.085 A 0.432 0.432 0 0 0 122.5 32.1 A 0.352 0.352 0 0 0 122.533 32.099 Q 122.609 32.091 122.65 32.05 A 0.148 0.148 0 0 1 122.689 32.022 Q 122.713 32.01 122.744 32.005 A 0.319 0.319 0 0 1 122.8 32 Q 123.2 31.9 123.5 31.85 Q 123.8 31.8 124.1 31.8 Q 125.8 31.8 126.45 33.15 Q 126.987 34.264 126.944 35.821 A 9.407 9.407 0 0 1 126.9 36.5 Q 126.4 38 125.1 40.45 Q 124.288 41.981 123.084 43.806 A 69.626 69.626 0 0 1 121.5 46.1 A 1.688 1.688 0 0 0 121.42 46.208 Q 121.233 46.484 121.233 46.745 A 0.746 0.746 0 0 0 121.3 47.05 A 1.019 1.019 0 0 0 121.422 47.26 A 0.577 0.577 0 0 0 121.9 47.5 Q 122.244 47.5 122.54 47.264 A 1.664 1.664 0 0 0 122.8 47 A 308.01 308.01 0 0 1 123.247 46.356 A 276.487 276.487 0 0 1 124.55 44.5 Q 125.4 43.3 126.1 42.3 Q 125.8 43.6 125.5 44.7 A 280.067 280.067 0 0 1 125.438 44.928 Q 125.179 45.874 125 46.5 Q 124.1 49.5 123.15 52.55 A 51.736 51.736 0 0 0 122.81 53.689 A 45.642 45.642 0 0 0 121.7 58.5 Q 121.657 59.181 121.76 59.863 A 7.276 7.276 0 0 0 122.3 61.7 Q 122.792 62.825 123.878 63.159 Z M 10.4 67.8 A 10.37 10.37 0 0 0 14.776 66.795 Q 16.174 66.151 17.565 65.093 A 18.568 18.568 0 0 0 17.75 64.95 Q 21.4 62.1 24.7 57.6 Q 28 53.1 30.8 48 A 129.294 129.294 0 0 0 33.843 42.12 A 103.414 103.414 0 0 0 35.6 38.3 Q 37.307 34.374 38.286 31.759 A 60.833 60.833 0 0 0 38.6 30.9 Q 30.4 33.6 23.4 38.1 Q 16.4 42.6 10.9 49.4 A 38.493 38.493 0 0 0 8.882 52.112 Q 7.882 53.595 7.173 54.998 A 20.111 20.111 0 0 0 6.55 56.35 A 22.156 22.156 0 0 0 5.781 58.484 Q 5.454 59.576 5.311 60.552 A 9.996 9.996 0 0 0 5.2 62 A 8.418 8.418 0 0 0 5.365 63.72 Q 5.681 65.233 6.6 66.25 A 4.614 4.614 0 0 0 9.466 67.736 A 6.58 6.58 0 0 0 10.4 67.8 Z" vector-effect="non-scaling-stroke"></path></g></svg></svg></g></g></svg></g><g id="dark-icon"><svg xmlns="http://www.w3.org/2000/svg" version="1.1" xmlns:xlink="http://www.w3.org/1999/xlink" xmlns:svgjs="http://svgjs.dev/svgjs" width="1000" height="1000"><g clip-path="url(#SvgjsClipPath1020)"><rect width="1000" height="1000" fill="#ffffff"></rect><g transform="matrix(3.7573805689747717,0,0,3.7573805689747717,150,367.3644659151906)"><svg xmlns="http://www.w3.org/2000/svg" version="1.1" xmlns:xlink="http://www.w3.org/1999/xlink" xmlns:svgjs="http://svgjs.dev/svgjs" width="186.3" height="70.6"><svg width="186.3" height="70.6" viewBox="0 0 186.3 70.6" xmlns="http://www.w3.org/2000/svg"><g id="svgGroup" stroke-linecap="round" fill-rule="evenodd" font-size="9pt" stroke="#000" stroke-width="0.25mm" fill="#000" style="stroke:#000;stroke-width:0.25mm;fill:#000"><path d="M 5.761 70.298 A 10.905 10.905 0 0 0 8.4 70.6 Q 11.9 70.6 16.3 68.5 Q 18.981 67.22 21.811 64.994 A 47.882 47.882 0 0 0 25.5 61.75 Q 30.3 57.1 34.95 49.5 A 73.934 73.934 0 0 0 36.245 47.297 Q 38.168 43.895 39.976 39.906 A 130.768 130.768 0 0 0 43.6 31 A 2.399 2.399 0 0 1 44.116 30.227 Q 44.631 29.695 45.55 29.25 A 13.427 13.427 0 0 1 46.762 28.737 A 16.045 16.045 0 0 1 49 28.1 A 23.661 23.661 0 0 1 49.821 27.942 Q 50.485 27.826 51.08 27.766 A 12.137 12.137 0 0 1 52.3 27.7 A 6.252 6.252 0 0 1 52.399 27.701 Q 53.138 27.713 53.7 27.9 Q 54.302 28.158 54.386 27.529 A 1.73 1.73 0 0 0 54.4 27.3 A 1.225 1.225 0 0 0 54.4 27.267 Q 54.393 27.017 54.284 26.819 A 1.004 1.004 0 0 0 54 26.5 A 0.69 0.69 0 0 0 53.997 26.497 Q 53.689 26.27 52.919 26.217 A 7.522 7.522 0 0 0 52.4 26.2 A 13.945 13.945 0 0 0 51.587 26.225 Q 48.82 26.387 44.4 27.6 A 123.286 123.286 0 0 0 45.143 25.13 A 150.102 150.102 0 0 0 46.35 20.7 Q 47.3 17 48.4 13.3 A 110.803 110.803 0 0 1 48.709 12.277 Q 49.655 9.206 50.6 6.8 Q 52.678 6.978 54.368 7.333 A 19.232 19.232 0 0 1 56.5 7.9 Q 57.4 8.2 58 8.3 A 9.456 9.456 0 0 0 58.364 8.354 Q 58.728 8.4 59 8.4 Q 59.7 8.4 59.7 7.9 A 0.601 0.601 0 0 0 59.693 7.813 Q 59.621 7.317 58.75 6.4 A 14.303 14.303 0 0 0 58.415 6.058 Q 57.691 5.345 57.2 5.1 A 16.464 16.464 0 0 0 56.691 4.856 A 18.688 18.688 0 0 0 55.05 4.2 Q 53.9 3.8 52.6 3.4 A 8.23 8.23 0 0 1 53.174 2.839 Q 54.287 1.859 55.4 1.7 A 2.626 2.626 0 0 0 55.694 1.63 Q 55.919 1.562 56.081 1.459 A 0.847 0.847 0 0 0 56.5 0.7 Q 56.5 0 55.4 0 Q 54 0 52.7 0.8 A 9.129 9.129 0 0 0 51.791 1.44 A 10.699 10.699 0 0 0 50.3 2.9 A 32.944 32.944 0 0 0 49.505 2.759 A 36.82 36.82 0 0 0 45.9 2.35 Q 43.6 2.2 41.1 2.2 Q 36.5 2.2 32 2.95 A 36.751 36.751 0 0 0 28.752 3.639 A 29.549 29.549 0 0 0 23.9 5.35 A 18.474 18.474 0 0 0 21.411 6.721 A 14.009 14.009 0 0 0 18.2 9.6 A 8.351 8.351 0 0 0 16.732 12.314 Q 16.283 13.714 16.283 15.348 A 12.401 12.401 0 0 0 16.3 16 Q 16.3 19.4 18.7 22.15 A 12.68 12.68 0 0 0 19.168 22.658 A 10.115 10.115 0 0 0 24.4 25.6 Q 25.214 25.844 25.366 25.558 A 0.335 0.335 0 0 0 25.4 25.4 A 0.283 0.283 0 0 0 25.389 25.324 Q 25.331 25.114 24.956 24.858 A 3.852 3.852 0 0 0 24.7 24.7 A 11.237 11.237 0 0 0 24.539 24.602 Q 23.76 24.132 22.45 23.5 A 8.277 8.277 0 0 1 22.315 23.433 A 8.621 8.621 0 0 1 19.85 21.55 A 4.193 4.193 0 0 1 18.876 19.748 A 5.677 5.677 0 0 1 18.7 18.3 A 7.109 7.109 0 0 1 19.619 14.72 A 8.202 8.202 0 0 1 21.45 12.55 A 14.495 14.495 0 0 1 22.111 12.018 Q 24.716 10.044 28.65 8.85 A 47.648 47.648 0 0 1 30.409 8.353 A 53.338 53.338 0 0 1 38.1 6.95 A 70.976 70.976 0 0 1 39.917 6.774 Q 42.616 6.547 45.164 6.547 A 54.855 54.855 0 0 1 47.6 6.6 A 52.376 52.376 0 0 0 45.995 9.825 A 65.798 65.798 0 0 0 44.1 14.45 A 149.912 149.912 0 0 0 42.963 17.649 A 123.305 123.305 0 0 0 41.35 22.7 A 176.666 176.666 0 0 1 41.338 22.742 Q 40.554 25.397 39.887 27.354 A 58.236 58.236 0 0 1 39.3 29 Q 29.6 32.1 21.25 37 A 56.081 56.081 0 0 0 17.671 39.287 A 61.596 61.596 0 0 0 6.1 49.8 Q 2.9 53.5 1.45 56.8 A 22.668 22.668 0 0 0 0.977 57.96 Q 0.516 59.19 0.273 60.314 A 11.29 11.29 0 0 0 0 62.7 A 10.063 10.063 0 0 0 0.088 64.051 A 7.135 7.135 0 0 0 2.3 68.45 A 7.694 7.694 0 0 0 5.761 70.298 Z M 67.3 48.8 L 67.1 48.8 Q 66.231 48.8 65.943 48.443 A 0.683 0.683 0 0 1 65.8 48 Q 65.8 47.523 66.529 47.501 A 2.391 2.391 0 0 1 66.6 47.5 A 8.916 8.916 0 0 0 68.31 47.17 Q 69.932 46.704 71.971 45.621 A 32.709 32.709 0 0 0 72.65 45.25 A 55.95 55.95 0 0 0 76.487 42.896 A 43.864 43.864 0 0 0 79.1 41 Q 80.3 40 81.95 38.2 A 8.281 8.281 0 0 0 82.816 37.092 Q 83.226 36.453 83.422 35.828 A 3.762 3.762 0 0 0 83.6 34.7 A 2.755 2.755 0 0 0 83.519 34.001 Q 83.285 33.109 82.367 32.94 A 2.578 2.578 0 0 0 81.9 32.9 A 4.45 4.45 0 0 0 80.646 33.087 A 5.567 5.567 0 0 0 80.05 33.3 Q 79.1 33.7 78.5 33.9 A 22.549 22.549 0 0 0 76.241 35.168 Q 75.035 35.932 73.74 36.927 A 46.729 46.729 0 0 0 72.1 38.25 Q 68.6 41.2 65.75 44.85 A 25.927 25.927 0 0 0 63.368 48.455 A 19.612 19.612 0 0 0 61.8 52.2 A 7.598 7.598 0 0 0 61.503 53.181 A 6.342 6.342 0 0 0 61.4 53.75 A 11.216 11.216 0 0 0 61.304 54.936 A 10.001 10.001 0 0 0 61.3 55.2 A 5.804 5.804 0 0 0 61.43 56.471 Q 61.608 57.266 62.033 57.839 A 3.097 3.097 0 0 0 62.85 58.6 A 6.157 6.157 0 0 0 65.133 59.476 A 8.348 8.348 0 0 0 66.6 59.6 A 16.533 16.533 0 0 0 71.125 58.946 A 20.724 20.724 0 0 0 73.4 58.15 A 35.741 35.741 0 0 0 79.787 54.684 A 39.571 39.571 0 0 0 80.2 54.4 Q 83.5 52.1 86.25 49.45 Q 89 46.8 90.9 44.3 A 1.389 1.389 0 0 1 91.118 44.066 A 0.918 0.918 0 0 1 91.6 43.85 A 1.372 1.372 0 0 1 91.672 43.843 Q 92.009 43.819 92.1 44 A 0.581 0.581 0 0 1 92.302 44.09 Q 92.5 44.234 92.5 44.55 Q 92.5 45 92.3 45.4 A 49.195 49.195 0 0 1 87.963 50.609 A 59.087 59.087 0 0 1 85.55 53 Q 81.6 56.7 76.85 59.15 Q 72.1 61.6 67 61.6 A 16.206 16.206 0 0 1 62.953 61.115 A 12.946 12.946 0 0 1 59.2 59.5 A 6.79 6.79 0 0 1 56.007 54.574 A 9.816 9.816 0 0 1 55.9 53.1 A 9.673 9.673 0 0 1 56.089 51.276 Q 56.262 50.38 56.593 49.37 A 23.752 23.752 0 0 1 57.3 47.5 Q 58.3 45.2 61 42.2 Q 63.7 39.2 67.3 36.35 Q 70.9 33.5 74.6 31.65 Q 78.3 29.8 81.3 29.8 A 6.981 6.981 0 0 1 82.459 29.892 A 5.588 5.588 0 0 1 83.3 30.1 A 5.196 5.196 0 0 1 84.381 30.618 A 3.481 3.481 0 0 1 85.65 32 Q 86.3 33.3 86.3 34.7 Q 86.3 36 85.9 37.2 A 9.772 9.772 0 0 1 85.403 38.423 A 7.72 7.72 0 0 1 84.9 39.3 A 14.687 14.687 0 0 1 82.385 42.148 A 20.013 20.013 0 0 1 79.75 44.1 A 34.448 34.448 0 0 1 74.455 46.832 A 30.811 30.811 0 0 1 72.95 47.4 A 40.913 40.913 0 0 1 70.916 48.052 Q 68.952 48.622 67.504 48.78 A 11.524 11.524 0 0 1 67.3 48.8 Z M 99.2 48.8 L 99 48.8 Q 98.131 48.8 97.843 48.443 A 0.683 0.683 0 0 1 97.7 48 Q 97.7 47.523 98.429 47.501 A 2.391 2.391 0 0 1 98.5 47.5 A 8.916 8.916 0 0 0 100.21 47.17 Q 101.832 46.704 103.871 45.621 A 32.709 32.709 0 0 0 104.55 45.25 A 55.95 55.95 0 0 0 108.387 42.896 A 43.864 43.864 0 0 0 111 41 Q 112.2 40 113.85 38.2 A 8.281 8.281 0 0 0 114.716 37.092 Q 115.126 36.453 115.322 35.828 A 3.762 3.762 0 0 0 115.5 34.7 A 2.755 2.755 0 0 0 115.419 34.001 Q 115.185 33.109 114.267 32.94 A 2.578 2.578 0 0 0 113.8 32.9 A 4.45 4.45 0 0 0 112.546 33.087 A 5.567 5.567 0 0 0 111.95 33.3 Q 111 33.7 110.4 33.9 A 22.549 22.549 0 0 0 108.141 35.168 Q 106.935 35.932 105.64 36.927 A 46.729 46.729 0 0 0 104 38.25 Q 100.5 41.2 97.65 44.85 A 25.927 25.927 0 0 0 95.268 48.455 A 19.612 19.612 0 0 0 93.7 52.2 A 7.598 7.598 0 0 0 93.403 53.181 A 6.342 6.342 0 0 0 93.3 53.75 A 11.216 11.216 0 0 0 93.204 54.936 A 10.001 10.001 0 0 0 93.2 55.2 A 5.804 5.804 0 0 0 93.33 56.471 Q 93.508 57.266 93.933 57.839 A 3.097 3.097 0 0 0 94.75 58.6 A 6.157 6.157 0 0 0 97.033 59.476 A 8.348 8.348 0 0 0 98.5 59.6 A 16.533 16.533 0 0 0 103.025 58.946 A 20.724 20.724 0 0 0 105.3 58.15 A 35.741 35.741 0 0 0 111.687 54.684 A 39.571 39.571 0 0 0 112.1 54.4 Q 115.4 52.1 118.15 49.45 Q 120.9 46.8 122.8 44.3 A 1.389 1.389 0 0 1 123.018 44.066 A 0.918 0.918 0 0 1 123.5 43.85 A 1.372 1.372 0 0 1 123.572 43.843 Q 123.909 43.819 124 44 A 0.581 0.581 0 0 1 124.202 44.09 Q 124.4 44.234 124.4 44.55 Q 124.4 45 124.2 45.4 A 49.195 49.195 0 0 1 119.863 50.609 A 59.087 59.087 0 0 1 117.45 53 Q 113.5 56.7 108.75 59.15 Q 104 61.6 98.9 61.6 A 16.206 16.206 0 0 1 94.853 61.115 A 12.946 12.946 0 0 1 91.1 59.5 A 6.79 6.79 0 0 1 87.907 54.574 A 9.816 9.816 0 0 1 87.8 53.1 A 9.673 9.673 0 0 1 87.989 51.276 Q 88.162 50.38 88.493 49.37 A 23.752 23.752 0 0 1 89.2 47.5 Q 90.2 45.2 92.9 42.2 Q 95.6 39.2 99.2 36.35 Q 102.8 33.5 106.5 31.65 Q 110.2 29.8 113.2 29.8 A 6.981 6.981 0 0 1 114.359 29.892 A 5.588 5.588 0 0 1 115.2 30.1 A 5.196 5.196 0 0 1 116.281 30.618 A 3.481 3.481 0 0 1 117.55 32 Q 118.2 33.3 118.2 34.7 Q 118.2 36 117.8 37.2 A 9.772 9.772 0 0 1 117.303 38.423 A 7.72 7.72 0 0 1 116.8 39.3 A 14.687 14.687 0 0 1 114.285 42.148 A 20.013 20.013 0 0 1 111.65 44.1 A 34.448 34.448 0 0 1 106.355 46.832 A 30.811 30.811 0 0 1 104.85 47.4 A 40.913 40.913 0 0 1 102.816 48.052 Q 100.852 48.622 99.404 48.78 A 11.524 11.524 0 0 1 99.2 48.8 Z M 154.2 65.1 Q 150.2 65.1 150.2 62.9 Q 150.2 61.662 151.217 60.365 A 8.529 8.529 0 0 1 151.9 59.6 Q 153.2 58.3 154.8 57.5 A 28.274 28.274 0 0 1 155.358 57.228 Q 156.455 56.71 156.788 56.7 A 0.428 0.428 0 0 1 156.8 56.7 Q 157.3 56.7 157.35 57.1 A 0.573 0.573 0 0 1 157.355 57.171 Q 157.355 57.518 156.9 57.7 A 13.033 13.033 0 0 0 156.115 58.213 Q 155.688 58.514 155.222 58.883 A 26.104 26.104 0 0 0 154.65 59.35 Q 153.4 60.4 153.4 61.6 A 1.914 1.914 0 0 0 153.511 62.281 Q 153.86 63.2 155.3 63.2 A 8.803 8.803 0 0 0 157.951 62.773 Q 159.006 62.441 160.1 61.85 A 20.709 20.709 0 0 0 164.615 58.531 A 23.035 23.035 0 0 0 164.75 58.4 A 26.376 26.376 0 0 0 166.809 56.155 A 20.45 20.45 0 0 0 168.25 54.15 A 12.195 12.195 0 0 0 168.947 52.891 Q 169.253 52.245 169.416 51.657 A 4.724 4.724 0 0 0 169.6 50.4 A 3.629 3.629 0 0 0 168.911 48.278 A 4.654 4.654 0 0 0 168.7 48 A 4.996 4.996 0 0 0 168.088 47.387 Q 167.395 46.792 166.239 46.1 A 29.721 29.721 0 0 0 165 45.4 Q 163.1 44.3 161.35 43.1 A 8.675 8.675 0 0 1 159.572 41.499 A 7.549 7.549 0 0 1 158.7 40.2 A 55.758 55.758 0 0 1 158.037 41.327 Q 157.734 41.829 157.387 42.385 A 112.933 112.933 0 0 1 156.65 43.55 A 41.148 41.148 0 0 1 155.101 45.791 A 51.824 51.824 0 0 1 153.7 47.6 Q 153.299 48.001 152.898 48.134 A 1.258 1.258 0 0 1 152.5 48.2 A 1.052 1.052 0 0 1 152.277 48.179 Q 151.956 48.109 151.908 47.81 A 0.702 0.702 0 0 1 151.9 47.7 Q 151.9 47.422 152.329 46.801 A 7.834 7.834 0 0 1 152.4 46.7 Q 154.467 44.25 155.714 42.093 A 19.462 19.462 0 0 0 156.4 40.8 A 94.004 94.004 0 0 0 157 39.531 Q 157.825 37.75 158.2 36.7 A 9.54 9.54 0 0 1 159.569 32.981 A 12.886 12.886 0 0 1 160.9 31.2 A 22.249 22.249 0 0 1 165.008 27.6 A 26.239 26.239 0 0 1 166.5 26.65 A 33.065 33.065 0 0 1 172.819 23.741 A 30.752 30.752 0 0 1 173.25 23.6 Q 176.124 22.684 178.477 22.531 A 14.224 14.224 0 0 1 179.4 22.5 Q 182.1 22.5 184.2 23.5 Q 186.205 24.455 186.296 26.503 A 4.444 4.444 0 0 1 186.3 26.7 A 4.791 4.791 0 0 1 186.13 27.93 Q 185.955 28.589 185.6 29.3 Q 184.7 31.2 182.6 32.7 Q 182.517 32.783 182.366 32.797 A 0.703 0.703 0 0 1 182.3 32.8 A 1.33 1.33 0 0 1 181.998 32.769 Q 181.586 32.673 181.515 32.278 A 1.002 1.002 0 0 1 181.5 32.1 Q 181.5 31.6 182 31.1 Q 182.8 30.4 183.3 29.4 Q 183.791 28.418 183.8 27.532 A 3.249 3.249 0 0 0 183.8 27.5 A 2.189 2.189 0 0 0 183.677 26.735 Q 183.292 25.7 181.7 25.7 A 10.852 10.852 0 0 0 180.111 25.829 Q 178.46 26.075 176.284 26.789 A 38.62 38.62 0 0 0 175.95 26.9 A 30.388 30.388 0 0 0 169.494 29.941 A 28.496 28.496 0 0 0 169.4 30 A 30.511 30.511 0 0 0 165.967 32.564 A 24.198 24.198 0 0 0 163.7 34.8 A 14.426 14.426 0 0 0 162.64 36.139 Q 161.589 37.658 161.429 38.945 A 3.681 3.681 0 0 0 161.4 39.4 A 2.954 2.954 0 0 0 161.971 41.143 A 3.682 3.682 0 0 0 162.05 41.25 Q 162.581 41.945 163.948 42.807 A 20.149 20.149 0 0 0 164.6 43.2 Q 165.366 43.659 166.6 44.324 A 111.098 111.098 0 0 0 167.4 44.75 Q 168.848 45.515 169.973 46.182 A 38.162 38.162 0 0 1 170.5 46.5 A 14.898 14.898 0 0 1 172.245 47.729 Q 174.6 49.678 174.6 51.8 A 5.87 5.87 0 0 1 174.044 54.24 Q 173.545 55.339 172.6 56.45 A 19.197 19.197 0 0 1 169.986 58.967 A 25.406 25.406 0 0 1 167.45 60.75 Q 164.3 62.7 160.8 63.9 Q 157.3 65.1 154.2 65.1 Z M 123.878 63.159 A 3.468 3.468 0 0 0 124.9 63.3 Q 125.053 63.3 125.382 63.183 A 6.137 6.137 0 0 0 125.6 63.1 A 1.051 1.051 0 0 0 125.766 63.017 Q 125.956 62.898 126.038 62.715 A 0.765 0.765 0 0 0 126.1 62.4 Q 126.3 60.7 128.25 57.5 A 60.276 60.276 0 0 1 129.225 55.956 Q 130.087 54.633 131.117 53.188 A 111.826 111.826 0 0 1 133.25 50.3 A 117.151 117.151 0 0 1 134.021 49.3 A 129.581 129.581 0 0 1 139.9 42.3 A 129.256 129.256 0 0 1 141.252 40.821 A 115.301 115.301 0 0 1 147.15 34.9 Q 149.203 32.988 151.098 31.486 A 43.233 43.233 0 0 1 153.95 29.4 A 22.727 22.727 0 0 1 154.554 29.011 Q 157.305 27.3 159.2 27.3 L 161.1 27.3 A 3.517 3.517 0 0 1 161.429 27.315 Q 162.186 27.386 162.6 27.8 A 7.602 7.602 0 0 0 162.797 27.928 Q 163.235 28.2 163.4 28.2 Q 164.2 28.2 164.2 27 A 2.504 2.504 0 0 0 164.173 26.62 Q 164.097 26.123 163.8 25.9 Q 163.4 25.1 162.2 24.5 A 5.481 5.481 0 0 0 160.812 24.032 A 7.225 7.225 0 0 0 159.4 23.9 A 4.935 4.935 0 0 0 159.244 23.903 Q 158.696 23.92 158.099 24.058 A 8.283 8.283 0 0 0 157 24.4 Q 154 25.6 151.6 27.55 Q 149.2 29.5 146.9 31.8 Q 141.2 37.1 136.3 43.3 Q 131.4 49.5 126.7 55.7 Q 126.55 54.345 127.079 52.084 A 29.306 29.306 0 0 1 127.5 50.5 Q 128.5 47.1 129.5 44.3 A 2.687 2.687 0 0 1 129.536 44.147 Q 129.676 43.615 130.15 42.45 A 109.7 109.7 0 0 0 130.186 42.363 Q 130.721 41.045 131.35 39.4 Q 132 37.7 132.55 36.25 Q 133.1 34.8 133.1 34.2 Q 133.203 33.79 133.174 33.38 A 2.767 2.767 0 0 0 133 32.6 A 4.292 4.292 0 0 0 132.711 31.978 A 3.185 3.185 0 0 0 132.2 31.3 A 4.014 4.014 0 0 0 132.175 31.269 A 3.154 3.154 0 0 0 130.2 30.1 Q 129 29.9 127.6 29.9 A 1.309 1.309 0 0 0 127.557 29.901 Q 127.361 29.907 126.747 29.966 A 80.158 80.158 0 0 0 126.4 30 A 53.008 53.008 0 0 0 125.83 30.06 A 61.618 61.618 0 0 0 124.3 30.25 Q 123.507 30.358 123.078 30.544 A 1.375 1.375 0 0 0 122.8 30.7 Q 122.341 31.313 122.233 31.632 A 0.541 0.541 0 0 0 122.2 31.8 A 0.442 0.442 0 0 0 122.213 31.911 Q 122.248 32.047 122.381 32.085 A 0.432 0.432 0 0 0 122.5 32.1 A 0.352 0.352 0 0 0 122.533 32.099 Q 122.609 32.091 122.65 32.05 A 0.148 0.148 0 0 1 122.689 32.022 Q 122.713 32.01 122.744 32.005 A 0.319 0.319 0 0 1 122.8 32 Q 123.2 31.9 123.5 31.85 Q 123.8 31.8 124.1 31.8 Q 125.8 31.8 126.45 33.15 Q 126.987 34.264 126.944 35.821 A 9.407 9.407 0 0 1 126.9 36.5 Q 126.4 38 125.1 40.45 Q 124.288 41.981 123.084 43.806 A 69.626 69.626 0 0 1 121.5 46.1 A 1.688 1.688 0 0 0 121.42 46.208 Q 121.233 46.484 121.233 46.745 A 0.746 0.746 0 0 0 121.3 47.05 A 1.019 1.019 0 0 0 121.422 47.26 A 0.577 0.577 0 0 0 121.9 47.5 Q 122.244 47.5 122.54 47.264 A 1.664 1.664 0 0 0 122.8 47 A 308.01 308.01 0 0 1 123.247 46.356 A 276.487 276.487 0 0 1 124.55 44.5 Q 125.4 43.3 126.1 42.3 Q 125.8 43.6 125.5 44.7 A 280.067 280.067 0 0 1 125.438 44.928 Q 125.179 45.874 125 46.5 Q 124.1 49.5 123.15 52.55 A 51.736 51.736 0 0 0 122.81 53.689 A 45.642 45.642 0 0 0 121.7 58.5 Q 121.657 59.181 121.76 59.863 A 7.276 7.276 0 0 0 122.3 61.7 Q 122.792 62.825 123.878 63.159 Z M 10.4 67.8 A 10.37 10.37 0 0 0 14.776 66.795 Q 16.174 66.151 17.565 65.093 A 18.568 18.568 0 0 0 17.75 64.95 Q 21.4 62.1 24.7 57.6 Q 28 53.1 30.8 48 A 129.294 129.294 0 0 0 33.843 42.12 A 103.414 103.414 0 0 0 35.6 38.3 Q 37.307 34.374 38.286 31.759 A 60.833 60.833 0 0 0 38.6 30.9 Q 30.4 33.6 23.4 38.1 Q 16.4 42.6 10.9 49.4 A 38.493 38.493 0 0 0 8.882 52.112 Q 7.882 53.595 7.173 54.998 A 20.111 20.111 0 0 0 6.55 56.35 A 22.156 22.156 0 0 0 5.781 58.484 Q 5.454 59.576 5.311 60.552 A 9.996 9.996 0 0 0 5.2 62 A 8.418 8.418 0 0 0 5.365 63.72 Q 5.681 65.233 6.6 66.25 A 4.614 4.614 0 0 0 9.466 67.736 A 6.58 6.58 0 0 0 10.4 67.8 Z" vector-effect="non-scaling-stroke"></path></g></svg></svg></g></g><defs><clipPath id="SvgjsClipPath1020"><rect width="1000" height="1000" x="0" y="0" rx="400" ry="400"></rect></clipPath></defs></svg></g></svg>